<?xml version="1.0" encoding="UTF-8"?>
<!DOCTYPE svg PUBLIC "-//W3C//DTD SVG 1.1//EN" "http://www.w3.org/Graphics/SVG/1.1/DTD/svg11.dtd">
<!-- Creator: CorelDRAW 2020 (64-Bit) -->
<svg xmlns="http://www.w3.org/2000/svg" xml:space="preserve" width="86mm" height="32mm" version="1.1" style="shape-rendering:geometricPrecision; text-rendering:geometricPrecision; image-rendering:optimizeQuality; fill-rule:evenodd; clip-rule:evenodd"
viewBox="0 0 8600 3200"
 xmlns:xlink="http://www.w3.org/1999/xlink"
 xmlns:xodm="http://www.corel.com/coreldraw/odm/2003">
 <defs>
  <style type="text/css">
   <![CDATA[
    .str0 {stroke:#00A859;stroke-width:7.62;stroke-miterlimit:22.9256}
    .fil1 {fill:#00A859}
    .fil0 {fill:#00A859;fill-rule:nonzero}
   ]]>
  </style>
 </defs>
 <g id="Capa_x0020_1">
  <metadata id="CorelCorpID_0Corel-Layer"/>
  <path class="fil0 str0" d="M403.48 2176.39c-111.96,0 -198.57,-29.26 -259.42,-88.56 -60.86,-58.9 -91.29,-142 -91.29,-249.67l0 -37.84 237.58 -0.78 0 37.45c0,39.79 10.53,70.22 31.99,92.07 21.45,21.84 51.1,32.77 89.33,32.77 37.06,0 66.32,-10.93 87.39,-31.99 20.67,-21.46 31.21,-51.5 31.21,-90.51l0 -1331.45 239.13 0 0 1331.45c0,71.78 -14.43,132.64 -42.91,182.96 -28.87,50.33 -70.61,88.56 -125.22,114.7 -55.01,26.52 -120.94,39.4 -197.79,39.4zm-104.16 -461.5c-53.05,0 -98.7,-13.66 -136.54,-40.58 -37.45,-27.3 -66.32,-66.31 -86.21,-117.81 -19.9,-51.49 -29.65,-113.52 -29.65,-185.69l0 -531.33c0,-74.13 9.75,-137.32 29.65,-190.38 19.89,-53.05 48.76,-93.24 86.21,-120.54 37.84,-27.7 83.49,-41.36 136.54,-41.36 53.45,0 102.6,18.73 147.07,55.4 44.48,37.06 80.37,88.95 108.06,156.04l-24.18 158c0,-31.99 -4.68,-59.69 -14.05,-82.31 -9.75,-23.02 -23.79,-40.57 -42.52,-52.67 -18.73,-12.09 -40.96,-18.33 -66.71,-18.33 -39.01,0 -69.44,13.65 -91.68,40.57 -21.84,26.92 -33.15,64.76 -33.15,113.52l0 498.56c0,44.87 11.31,79.59 33.15,104.55 22.24,24.58 52.67,37.06 91.68,37.06 25.75,0 47.98,-5.85 66.71,-17.16 18.73,-11.31 32.77,-28.48 42.52,-50.72 9.37,-22.62 14.05,-49.54 14.05,-80.75l15.99 158.78c-21.06,65.54 -53.05,116.64 -95.97,152.92 -42.52,35.89 -92.84,54.23 -150.97,54.23z"/>
  <path id="1" class="fil0 str0" d="M1483.7 507.88l238.75 0 0 1186.33 -238.75 0 0 -1186.33zm-233.29 868.78c0,38.62 9.76,67.88 29.65,87.38 19.9,19.12 49.16,28.87 88.17,28.87 38.62,0 67.49,-10.14 86.6,-30.04 19.12,-20.28 28.87,-50.71 28.87,-90.89l15.99 135.76c-20.67,68.66 -49.54,119.76 -86.99,153.31 -37.45,33.55 -84.26,50.32 -140.44,50.32 -86.22,0 -151.36,-27.69 -195.06,-82.7 -43.69,-55.39 -65.54,-137.32 -65.54,-245.38l0 -875.41 238.75 0 0 868.78z"/>
  <path id="2" class="fil0 str0" d="M2445.71 832.45c0,-42.52 -11.31,-75.68 -33.55,-98.69 -22.62,-23.41 -54.61,-35.12 -95.57,-35.12 -35.89,0 -63.59,11.71 -83.49,35.12 -19.89,23.01 -29.65,56.17 -29.65,98.69l-232.11 0c0,-109.62 30.82,-194.66 92.06,-254.74 61.25,-60.47 147.08,-90.51 257.87,-90.51 74.51,0 138.49,13.66 191.93,40.58 53.45,27.3 94.02,66.32 121.72,117.81 27.69,51.49 41.74,113.91 41.74,186.86l0 861.76 -230.95 0 0 -861.76zm-212.61 878.92c-94.41,0 -165.8,-28.08 -213.78,-83.87 -47.98,-56.18 -71.78,-139.66 -71.78,-250.84 0,-131.08 31.6,-229.78 94.8,-296.1 63.2,-66.31 156.82,-99.47 280.88,-99.47l130.29 0 16 204.41 -140.44 0c-51.11,0 -89.34,16 -114.69,47.99 -25.75,31.99 -38.23,79.58 -38.23,143.17 0,42.52 9.75,74.12 30.03,95.19 20.29,21.06 50.72,31.6 90.9,31.6 48.76,0 85.82,-13.66 110.79,-41.36 25.36,-27.3 37.84,-67.88 37.84,-120.93l23.02 106.11c-0.78,58.13 -10.14,106.5 -28.09,145.9 -17.94,39.01 -44.47,68.66 -78.8,88.56 -34.72,19.89 -77.63,29.64 -128.74,29.64z"/>
  <path id="3" class="fil0 str0" d="M2918.91 507.88l239.92 0 0 1186.33 -239.92 0 0 -1186.33zm552.01 223.92c-7.02,0 -14.82,0 -23.01,0 -8.2,0 -17.95,0 -28.48,0 -81.54,0 -145.12,21.07 -191.16,63.59 -45.64,42.13 -68.66,99.87 -69.44,173.21l-24.18 -253.96c37.45,-71.39 85.43,-127.18 143.56,-167.36 58.12,-39.79 122.49,-60.08 192.71,-60.08 0,0 0,0 0,0 0,0 0,0 0,0l0 244.6z"/>
  <path id="4" class="fil0 str0" d="M4086.52 32.33l240.3 0 0 1661.88 -240.3 0 0 -1661.88zm-230.95 1682.56c-52.27,0 -97.53,-13.66 -135.37,-40.58 -37.45,-27.3 -66.32,-66.31 -86.21,-117.81 -19.9,-51.49 -29.65,-113.52 -29.65,-185.69l0 -531.33c0,-74.13 9.75,-137.32 29.65,-190.38 19.89,-53.05 48.76,-93.24 86.21,-120.54 37.84,-27.7 83.1,-41.36 135.37,-41.36 53.45,0 102.6,18.73 147.07,55.4 44.47,37.06 80.37,88.95 108.06,156.04l-24.18 162.29c0,-31.99 -4.69,-59.69 -14.05,-82.7 -9.75,-23.41 -23.4,-40.96 -41.74,-52.67 -18.34,-11.7 -40.57,-17.55 -66.32,-17.55 -39.01,0 -69.05,13.26 -90.89,40.57 -21.85,26.92 -32.77,64.76 -32.77,113.52l0 489.2c0,44.86 10.92,79.97 32.77,104.55 21.84,24.97 51.88,37.06 90.89,37.06 25.75,0 47.98,-5.46 66.32,-17.16 18.34,-11.32 31.99,-28.09 41.74,-50.72 9.36,-22.62 14.05,-49.15 14.05,-80.36l15.99 163.07c-20.29,65.54 -52.27,116.64 -95.19,152.92 -43.3,35.89 -93.62,54.23 -151.75,54.23z"/>
  <path id="5" class="fil0 str0" d="M4559.72 42.87l239.92 0 0 237.58 -239.92 0 0 -237.58zm0 465.01l239.92 0 0 1186.33 -239.92 0 0 -1186.33z"/>
  <path id="6" class="fil0 str0" d="M5513.93 832.45c0,-42.52 -11.31,-75.68 -33.55,-98.69 -22.62,-23.41 -54.61,-35.12 -95.57,-35.12 -35.89,0 -63.59,11.71 -83.49,35.12 -19.89,23.01 -29.65,56.17 -29.65,98.69l-232.11 0c0,-109.62 30.82,-194.66 92.06,-254.74 61.25,-60.47 147.08,-90.51 257.87,-90.51 74.51,0 138.49,13.66 191.93,40.58 53.45,27.3 94.02,66.32 121.72,117.81 27.69,51.49 41.74,113.91 41.74,186.86l0 861.76 -230.95 0 0 -861.76zm-212.61 878.92c-94.41,0 -165.8,-28.08 -213.78,-83.87 -47.98,-56.18 -71.78,-139.66 -71.78,-250.84 0,-131.08 31.6,-229.78 94.8,-296.1 63.2,-66.31 156.82,-99.47 280.88,-99.47l130.29 0 16 204.41 -140.44 0c-51.11,0 -89.34,16 -114.69,47.99 -25.75,31.99 -38.23,79.58 -38.23,143.17 0,42.52 9.75,74.12 30.03,95.19 20.29,21.06 50.72,31.6 90.9,31.6 48.76,0 85.82,-13.66 110.79,-41.36 25.36,-27.3 37.84,-67.88 37.84,-120.93l23.02 106.11c-0.78,58.13 -10.14,106.5 -28.09,145.9 -17.94,39.01 -44.47,68.66 -78.8,88.56 -34.72,19.89 -77.63,29.64 -128.74,29.64z"/>
  <path class="fil1" d="M7295.84 388.94c694.96,0 1258.36,563.38 1258.36,1258.35 0,694.98 -563.4,1258.36 -1258.36,1258.36 -694.96,0 -1258.35,-563.38 -1258.35,-1258.36 0,-694.97 563.39,-1258.35 1258.35,-1258.35zm-134.32 426.32l268.63 0c31.73,0 57.7,25.96 57.7,57.69l0 582.34 582.36 0c31.73,0 57.7,25.97 57.7,57.7l0 268.63c0,31.73 -25.97,57.7 -57.7,57.7l-582.36 0 0 582.35c0,31.73 -25.97,57.69 -57.7,57.69l-268.63 0c-31.73,0 -57.7,-25.96 -57.7,-57.69l0 -582.35 -582.32 0c-31.73,0 -57.69,-25.97 -57.69,-57.7l0 -268.63c0,-31.73 25.96,-57.7 57.69,-57.7l582.32 0 0 -582.34c0,-31.73 25.97,-57.69 57.7,-57.69z"/>
  <path class="fil0" d="M3768.76 2114.96l105.18 0 0 1066.05 -105.18 0 0 -1066.05zm266.7 768.94c-41.38,0 -77.77,-11.47 -109.17,-34.65 -31.41,-23.18 -52.35,-54.83 -62.57,-95.46l10.22 -114.66c0,32.65 4.74,60.57 14.21,83.25 9.47,22.93 23.68,40.63 42.12,52.59 18.45,12.22 40.63,18.45 66.31,18.45 39.88,0 71.03,-13.96 93.22,-41.38 22.18,-27.41 33.15,-66.05 33.15,-115.65l0 -290.63c0,-48.85 -10.97,-86.49 -33.15,-113.16 -22.19,-26.92 -53.34,-40.13 -93.22,-40.13 -25.68,0 -47.86,5.74 -66.31,17.45 -18.44,11.72 -32.65,28.91 -42.12,51.35 -9.47,22.68 -14.21,49.85 -14.21,81.5l-15.2 -102.19c14.95,-43.37 39.38,-77.27 73.28,-101.95 33.9,-24.42 70.79,-36.88 110.67,-36.88 38.38,0 71.28,9.47 98.45,28.66 27.42,18.94 48.11,46.61 62.06,82.75 14.21,36.39 21.19,80.26 21.19,131.85l0 291.38c0,52.09 -7.23,96.71 -22.18,133.85 -14.96,37.39 -36.39,65.55 -64.56,84.74 -28.41,19.2 -62.31,28.92 -102.19,28.92z"/>
  <path id="1" class="fil0" d="M4475.63 2673.53c0,32.15 7.23,57.08 21.69,74.77 14.21,17.95 34.64,26.67 60.82,26.67l48.35 0 0 97.96 -58.57 0c-56.33,0 -100.2,-17.45 -131.11,-52.59 -30.91,-35.15 -46.36,-84.5 -46.36,-148.31l0 -860.91 105.18 0 0 862.41z"/>
  <path id="2" class="fil0" d="M5052.41 2114.96l104.43 0 0 757.97 -104.43 0 0 -757.97zm-239.53 555.58c0,36.64 10.46,65.05 31.4,85.24 20.94,20.19 50.6,30.16 89.23,30.16 39.88,0 69.54,-9.72 89.24,-29.41 19.94,-19.69 29.66,-49.35 29.66,-88.73l10.22 98.45c-14.96,39.38 -36.64,69.04 -64.56,88.48 -27.92,19.45 -62.81,29.17 -104.19,29.17 -58.82,0 -104.43,-18.7 -136.84,-55.84 -32.4,-37.38 -48.6,-89.73 -48.6,-157.52l0 -555.58 104.44 0 0 555.58z"/>
  <path id="3" class="fil0" d="M5510.28 2883.9c-51.1,0 -93.72,-8.48 -127.62,-25.18 -33.65,-16.95 -59.07,-42.12 -76.27,-75.52 -16.95,-33.65 -25.42,-75.77 -25.42,-126.37l0 0 96.96 0 0 0c0,45.61 10.96,80.01 32.9,102.94 21.93,22.93 55.08,34.4 99.45,34.4 44.12,0 77.27,-10.97 99.2,-32.9 21.94,-21.94 32.9,-54.84 32.9,-98.71 0,-21.93 -4.73,-40.13 -13.95,-54.58 -9.23,-14.71 -21.69,-26.43 -37.14,-35.65 -15.71,-8.97 -35.15,-17.2 -58.33,-25.17 -3.49,-1 -6.98,-2 -10.72,-3.24 -3.73,-1.25 -7.47,-2.25 -11.21,-3.24 -2.49,-1 -4.99,-1.75 -7.73,-2.5 -2.74,-0.74 -5.23,-1.49 -7.73,-1.99 -43.86,-12.96 -79.26,-26.17 -106.68,-39.38 -27.16,-13.21 -50.34,-33.9 -69.54,-62.06 -19.44,-28.17 -28.91,-66.31 -28.91,-114.66 0,-48.6 7.98,-89.23 23.68,-121.64 15.95,-32.15 39.63,-56.58 71.28,-72.53 31.66,-16.2 71.29,-24.17 118.9,-24.17 47.85,0 87.49,7.97 119.14,23.42 31.66,15.46 55.33,39.14 71.04,70.54 15.95,31.41 23.92,70.54 23.92,117.9l0 0 -97.2 0 0 0c0,-40.88 -9.72,-71.54 -29.17,-91.73 -19.44,-20.18 -48.6,-30.15 -87.73,-30.15 -38.89,0 -68.05,10.46 -87.49,31.4 -19.44,20.94 -29.16,52.34 -29.16,94.22 0,25.67 5.73,46.61 17.69,63.06 11.97,16.2 27.42,29.16 46.37,38.38 18.94,9.23 43.12,17.95 72.28,26.17 1.49,0.5 3.24,1 4.73,1.25 1.75,0.25 3.49,0.5 4.74,1 1,0.5 2.24,0.75 3.49,1 1.25,0.24 2.24,0.49 3.24,0.49 42.37,11.72 76.77,23.93 103.69,36.89 26.67,12.96 49.35,33.4 67.8,61.57 18.69,28.41 27.91,66.8 27.91,115.4 0,49.6 -8.47,90.98 -25.17,123.38 -16.95,32.65 -42.38,57.08 -76.52,73.53 -33.9,16.2 -76.52,24.43 -127.62,24.43z"/>
 </g>
</svg>
